<svg id="icons" xmlns="http://www.w3.org/2000/svg" viewBox="0 0 64 64"><title>wooden-fence</title><g id="wooden-fence"><rect x="18" y="47" width="8" height="6" fill="#6b543c"/><rect x="38" y="47" width="8" height="6" fill="#6b543c"/><rect x="38" y="20" width="8" height="6" fill="#6b543c"/><rect x="18" y="20" width="8" height="6" fill="#6b543c"/><path d="M52,3,50.5,5,46,11V59a2,2,0,0,0,2,2h8a2,2,0,0,0,2-2V11Z" fill="#93785a"/><path d="M30.5,5,26,11V59a2,2,0,0,0,2,2h8a2,2,0,0,0,2-2V11L32,3Z" fill="#93785a"/><path d="M10.5,5,6,11V59a2,2,0,0,0,2,2h8a2,2,0,0,0,2-2V11L12,3Z" fill="#93785a"/><path d="M6.07,57.62c.22,1,.42,2,.61,2.87A2,2,0,0,1,6,59V57.28C6,57.39,6.05,57.5,6.07,57.62ZM6,11v2.64c.14-1.09.29-2.17.44-3.22ZM6,42.87v6q.6,4.24,1.43,8.68c.23,1.27.46,2.4.67,3.44h.76c-.22-1.07-.45-2.25-.7-3.58Q6.77,49.86,6,42.87ZM9.35,8.19c.14-.73.25-1.44.37-2.16l-1,1.32-.12.71C5.43,25.65,6.5,39.12,9.08,53.94,9.57,56.76,10,59,10.45,61h.77c-.43-2-.9-4.31-1.41-7.19C7.25,39.07,6.19,25.67,9.35,8.19ZM12.64,55A150.16,150.16,0,0,1,9.82,28.3a54.94,54.94,0,0,1,1.43-15.53A80.8,80.8,0,0,0,12.76,4l-.65-.88a84.2,84.2,0,0,1-1.59,9.47A55.62,55.62,0,0,0,9.07,28.32a150.82,150.82,0,0,0,2.84,26.83c.15.87.31,1.73.46,2.61C12.58,59,12.81,60,13,61h.77c-.24-1-.48-2.11-.7-3.37C13,56.75,12.8,55.89,12.64,55ZM12.3,33.54C11.57,25,12.2,21,13.72,11.4l.61-3.85c.06-.4.12-.8.17-1.21l-.64-.86c-.08.67-.18,1.32-.27,2L13,11.28c-1.53,9.66-2.17,13.66-1.43,22.33C13,50.27,15.41,59.76,15.68,60.79l.06.21H16a2,2,0,0,0,.5-.07,3.18,3.18,0,0,0-.08-.33C16.14,59.58,13.71,50.14,12.3,33.54Zm3.53,10.37C15.05,38,14,27.34,14.33,22.29c.19-2.89,1.08-8.56,1.89-13.67l-.63-.83,0,.26c-.83,5.24-1.78,11.18-2,14.19-.32,5.11.73,15.82,1.51,21.77.25,1.9.81,4.79,1.46,8.13.45,2.31.93,4.83,1.38,7.34A2,2,0,0,0,18,59V55.71c-.24-1.27-.48-2.52-.71-3.71C16.64,48.66,16.08,45.78,15.83,43.91Zm.71-13.61a.36.36,0,0,0,.36.29H17a.38.38,0,0,0,.29-.45,55.19,55.19,0,0,1,0-18.55.37.37,0,1,0-.73-.13A56,56,0,0,0,16.54,30.3Zm.37,2.76c-.94,1.14-.78,4.71.52,11.58a.37.37,0,0,0,.44.3l.13,0V43.6c-1.05-5.81-1.22-9.2-.51-10.06a.38.38,0,0,1,.31-.16.33.33,0,0,1,.2.09v-.81A1.09,1.09,0,0,0,16.91,33.06ZM26,47V59a2,2,0,0,0,.46,1.26A82.59,82.59,0,0,0,26,43.4Zm0-15.67V34A51.17,51.17,0,0,1,28.66,51.6c0,3-.21,6.17-.49,9.4h.75c.29-3.23.49-6.4.49-9.4a52.61,52.61,0,0,0-2.73-18C26.45,32.87,26.23,32.11,26,31.33ZM35.41,11.9h.07a.37.37,0,0,0,.3-.43c-.29-1.68-.64-3.25-1-4.77L33.6,5.13c.54,2,1,4.16,1.44,6.46A.38.38,0,0,0,35.41,11.9ZM26,11v2.37c0-1,.1-1.86.19-2.63Zm9.13,6c-.25-6.39-2.34-10.4-4.21-12-.08-.08-.17-.13-.25-.2l-.45.6.21.16c1.67,1.45,3.7,5.32,4,11.48.21,5.47-2.47,17.5-3.51,18.4-.85-.23-3.33-4-4.55-15.15C26.13,18.52,26,17,26,15.62v8c1.22,8.11,3.28,12.46,4.87,12.59h.05a.69.69,0,0,0,.46-.2C32.88,34.53,35.33,22.12,35.13,17ZM29.91,30H30a.38.38,0,0,0,.29-.45c-1-4.79-3.13-17.79-1.26-20.36a.79.79,0,0,1,.56-.36c.21,0,.85-.09,1.49,1.19,1.59,3.2,1.31,11.27.7,12.55-.69-.85-1.57-6.84-1.15-8.11a.36.36,0,0,0-.23-.47.38.38,0,0,0-.48.23c-.41,1.23.23,7.35,1.25,8.76a.81.81,0,0,0,.67.41.62.62,0,0,0,.55-.4c.86-1.61,1.11-10.78-1-13.85A2,2,0,0,0,29.5,8.05a1.52,1.52,0,0,0-1.08.67c-2.46,3.35,1,20.24,1.12,21A.39.39,0,0,0,29.91,30Zm-.51,6.81a.38.38,0,0,0-.21.49,26.75,26.75,0,0,1,1.34,9.19c0,.08-.06,7.34-.5,14.53h.75c.44-7.19.5-14.44.5-14.52A26.9,26.9,0,0,0,29.89,37,.38.38,0,0,0,29.4,36.79Zm5.85-6.11a.38.38,0,0,0-.46.27,71.31,71.31,0,0,0-2.15,14.24c0,3.59-.21,9.39-.78,15.81h.75c.57-6.42.74-12.21.78-15.8a70.73,70.73,0,0,1,2.12-14.06A.38.38,0,0,0,35.25,30.68Zm1.64-9.82a.36.36,0,0,0-.39-.36.37.37,0,0,0-.36.39c0,.13.53,13.06-.65,19.42a79.56,79.56,0,0,0-.9,11.4c-.1,3.1-.21,6.27-.53,9.29h.75c.32-3,.43-6.18.53-9.27a80.68,80.68,0,0,1,.88-11.28C37.43,34,36.89,21,36.89,20.86Zm0,39.91c.32-3.11.73-7.43,1.09-12.36V31.92C37.84,43.24,36.79,54.76,36.13,61A2.06,2.06,0,0,0,36.91,60.77ZM36.45,8.93A94.47,94.47,0,0,1,37.9,22.69c.05,1.23.08,2.48.1,3.74V14.17c-.17-1.41-.35-2.7-.55-3.91Zm12,30.19a106.34,106.34,0,0,0-1.34-12.67c-.37-2.36-.76-4.8-1.08-9L46,16.69v7.25c.13.93.27,1.79.4,2.63a107.74,107.74,0,0,1,1.33,12.59c.29,5.21.3,8.54.3,11.47A83.17,83.17,0,0,0,48.51,61h.75a83.25,83.25,0,0,1-.48-10.37C48.78,47.69,48.77,44.35,48.48,39.12ZM46,59a2,2,0,0,0,.32,1.09c-.12-1.24-.23-2.52-.32-3.8Zm1.3-16.55a.36.36,0,0,0-.37-.37h0a.38.38,0,0,0-.38.37c0,.13,0,12.75.46,17.19a.38.38,0,0,0,.37.34h0a.37.37,0,0,0,.33-.41C47.26,55.15,47.3,42.57,47.3,42.44Zm3.56,4a137.78,137.78,0,0,0-1.1-21.69l-.2-1.22A85.6,85.6,0,0,1,48.15,8.13l-.75,1a87.89,87.89,0,0,0,1.42,14.56l.2,1.22a137.12,137.12,0,0,1,1.09,21.56c-.06,3.48.29,9,.72,14.53h.75C51.15,55.5,50.8,50,50.86,46.48Zm2.07-2.79A146.08,146.08,0,0,0,51.4,20.82C50.19,12,50.14,9.09,50.55,4.93l-.86,1.14c-.28,3.63-.14,6.78,1,14.85a145.79,145.79,0,0,1,1.52,22.77c0,1.36,0,2.71,0,4.1,0,2.81.59,7.63,1.22,13.21h.76C53.54,55.4,53,50.57,53,47.77,52.93,46.39,52.93,45.05,52.93,43.69Zm-.57-30h0a.37.37,0,0,0,.35-.4C52.36,8,52.56,5.94,53,4.34l-.56-.74c-.58,1.78-.89,3.68-.47,9.71A.38.38,0,0,0,52.36,13.65Zm5-3.46c0,.51.07,1.05.09,1.66.15,3.92-.39,6.13-1.48,6.22-.41-.16-1.52-2.52-1.78-7.39a30.87,30.87,0,0,1,0-4.75l-.63-.84a23.09,23.09,0,0,0-.1,5.63c.24,4.43,1.2,7.19,2,7.88a.79.79,0,0,0,.52.22H56c1-.08,1.65-.95,2-2.62V11ZM56,16.69l.14,0a.69.69,0,0,0,.57-.39c.65-1,.22-4.8-.15-7.27l-1-1.29c.47,2.74.94,6.64.55,8a22.42,22.42,0,0,1-.47-4.17.37.37,0,0,0-.39-.37.38.38,0,0,0-.36.39C55.08,16.44,55.76,16.63,56,16.69Zm-3.4-1.77h0a.38.38,0,0,0-.37.38c.09,3.1.44,10.34,1.86,10.78a1.07,1.07,0,0,0,.39.07A1.1,1.1,0,0,0,55,26c.85-.5,1.17-2.14,1.6-4.4l.2-1a.38.38,0,0,0-.3-.45.39.39,0,0,0-.44.3l-.19,1c-.36,1.83-.69,3.56-1.25,3.9a.38.38,0,0,1-.33,0C53.63,25,53.08,19.85,53,15.28A.37.37,0,0,0,52.58,14.92Zm2,18c-1.08,8.43.81,20.75.83,20.87a.38.38,0,0,0,.37.32h.06a.37.37,0,0,0,.31-.43c0-.12-1.89-12.33-.82-20.65a31.1,31.1,0,0,1,2.39-8.45c.09-.21.17-.41.25-.62V21.88c-.3.84-.62,1.64-.94,2.45A31.51,31.51,0,0,0,54.61,33Zm1.56,23.59a.37.37,0,0,0-.33.42c0,.05.18,1.57.44,4a2.26,2.26,0,0,0,.73-.25c-.25-2.34-.42-3.79-.43-3.84A.37.37,0,0,0,56.17,56.55Zm1.48-4c.1,1.16.22,2.43.35,3.76V47.43A63.29,63.29,0,0,1,58,38V33.3C56.5,39.32,57.16,46.9,57.65,52.56Z" fill="#b79b79"/><g opacity="0.7"><path d="M58,11V59a2,2,0,0,1-2,2H53a2,2,0,0,0,2-2V11L52,3Z" fill="#634e37"/><path d="M38,11V59a2,2,0,0,1-2,2H33a2,2,0,0,0,2-2V11L32,3Z" fill="#634e37"/><path d="M18,11V59a2,2,0,0,1-2,2H13a2,2,0,0,0,2-2V11L12,3Z" fill="#634e37"/></g><circle cx="12" cy="23" r="1" fill="#54422f"/><circle cx="32" cy="23" r="1" fill="#54422f"/><circle cx="52" cy="23" r="1" fill="#54422f"/><circle cx="12" cy="50" r="1" fill="#54422f"/><circle cx="32" cy="50" r="1" fill="#54422f"/><circle cx="52" cy="50" r="1" fill="#54422f"/><line x1="38" y1="26" x2="38" y2="47" fill="none" stroke="#2d3030" stroke-linecap="round" stroke-linejoin="round" stroke-width="2"/><polyline points="26 20 26 11 32 3 38 11 38 20" fill="none" stroke="#2d3030" stroke-linecap="round" stroke-linejoin="round" stroke-width="2"/><line x1="26" y1="47" x2="26" y2="26" fill="none" stroke="#2d3030" stroke-linecap="round" stroke-linejoin="round" stroke-width="2"/><path d="M38,53v6a2,2,0,0,1-2,2H28a2,2,0,0,1-2-2V53" fill="none" stroke="#2d3030" stroke-linecap="round" stroke-linejoin="round" stroke-width="2"/><line x1="18" y1="26" x2="18" y2="47" fill="none" stroke="#2d3030" stroke-linecap="round" stroke-linejoin="round" stroke-width="2"/><path d="M18,53v6a2,2,0,0,1-2,2H8a2,2,0,0,1-2-2V11l6-8,6,8v9" fill="none" stroke="#2d3030" stroke-linecap="round" stroke-linejoin="round" stroke-width="2"/><line x1="46" y1="47" x2="46" y2="26" fill="none" stroke="#2d3030" stroke-linecap="round" stroke-linejoin="round" stroke-width="2"/><path d="M46,20V11l6-8,6,8V59a2,2,0,0,1-2,2H48a2,2,0,0,1-2-2V53" fill="none" stroke="#2d3030" stroke-linecap="round" stroke-linejoin="round" stroke-width="2"/><rect x="18" y="20" width="8" height="6" fill="none" stroke="#2d3030" stroke-linecap="round" stroke-linejoin="round" stroke-width="2"/><rect x="38" y="20" width="8" height="6" fill="none" stroke="#2d3030" stroke-linecap="round" stroke-linejoin="round" stroke-width="2"/><rect x="38" y="47" width="8" height="6" fill="none" stroke="#2d3030" stroke-linecap="round" stroke-linejoin="round" stroke-width="2"/><rect x="18" y="47" width="8" height="6" fill="none" stroke="#2d3030" stroke-linecap="round" stroke-linejoin="round" stroke-width="2"/></g></svg>