<svg xmlns:mydata="http://www.w3.org/2000/svg" mydata:contrastcolor="e4f1e2" mydata:template="Contrast" mydata:presentation="2.5" mydata:layouttype="undefined" mydata:specialfontid="undefined" mydata:id1="039" mydata:id2="040" mydata:companyname="Zaunkönig Haydu" mydata:companytagline="Wir baun dein Zaun!" version="1.1" xmlns="http://www.w3.org/2000/svg" xmlns:xlink="http://www.w3.org/1999/xlink" viewBox="145.98688770025768 106 258.02622459948464 258" class="svg-third-tile" style="width: auto; inset: auto 50px 50px auto; filter: drop-shadow(rgba(0, 0, 0, 0.6) 3px 2px 4px); height: 22%;"><g fill="none" fill-rule="none" stroke="none" stroke-width="1" stroke-linecap="butt" stroke-linejoin="miter" stroke-miterlimit="10" stroke-dasharray="" stroke-dashoffset="0" font-family="none" font-weight="none" font-size="none" text-anchor="none" style="mix-blend-mode: normal; fill: rgb(255, 255, 255);"><g data-paper-data="{&quot;isGlobalGroup&quot;:true,&quot;bounds&quot;:{&quot;x&quot;:145.98688770025768,&quot;y&quot;:106,&quot;width&quot;:258.02622459948464,&quot;height&quot;:258}}" style="fill: rgb(255, 255, 255);"><g data-paper-data="{&quot;fillRule&quot;:&quot;evenodd&quot;,&quot;fillRuleOriginal&quot;:&quot;evenodd&quot;,&quot;isIcon&quot;:true,&quot;iconStyle&quot;:&quot;standalone&quot;,&quot;selectedEffects&quot;:{&quot;container&quot;:&quot;circle_simple_outline3&quot;,&quot;transformation&quot;:&quot;&quot;,&quot;pattern&quot;:&quot;&quot;},&quot;bounds&quot;:{&quot;x&quot;:199.28479263987967,&quot;y&quot;:159.28474522734479,&quot;width&quot;:151.43048045469337,&quot;height&quot;:151.43060917071114},&quot;widthRatioIconToContainer&quot;:0.6311341594013681,&quot;heightRatioIconToContainer&quot;:0.5363354889367563,&quot;relativeBoundsIconToContainer&quot;:{&quot;top&quot;:-2.649583565415582e-7,&quot;left&quot;:1.324792837446968e-7},&quot;iconType&quot;:&quot;icon&quot;,&quot;rawIconId&quot;:&quot;1331811&quot;,&quot;combineTerms&quot;:&quot;zaun&quot;,&quot;isDetailed&quot;:true,&quot;blockLetter&quot;:&quot;O&quot;,&quot;suitableAsStandaloneIcon&quot;:true}" fill="#000000" fill-rule="evenodd" style="fill: rgb(255, 255, 255);"><path d="M234.19726,260.99483v14.614h-6.98368v-81.21761h6.98368v14.614h81.47627v-14.614h7.11301v81.21761h-7.11301v-14.614zM238.72371,212.62637h-4.52646v8.66494h4.52646zM244.67278,212.62637h-4.52646v8.66494h4.52646zM250.62184,212.62637h-4.52646v8.66494h4.52646zM256.5709,212.62637h-4.52646v8.66494h4.52646zM262.51997,212.62637h-4.52646v8.66494h4.52646zM268.46902,212.62637h-4.52646v8.66494h4.52646zM274.28875,212.62637h-4.39713v8.66494h4.39713zM280.23782,212.62637h-4.39713v8.66494h4.39713zM286.18687,212.62637h-4.39713v8.66494h4.39713zM292.13594,212.62637h-4.39713v8.66494h4.39713zM298.085,212.62637h-4.39713v8.66494h4.39713zM304.03406,212.62637h-4.39713v8.66494h4.39713zM309.98312,212.62637h-4.39713v8.66494h4.39713zM315.67353,212.62637h-4.13848v8.66494h4.13848zM234.19726,234.22406h4.52646v-11.38081h-4.52646zM240.14632,234.22406h4.52646v-11.38081h-4.52646zM246.09539,234.22406h4.52646v-11.38081h-4.52646zM252.04444,234.22406h4.52646v-11.38081h-4.52646zM257.9935,234.22406h4.52646v-11.38081h-4.52646zM263.94256,234.22406h4.52646v-11.38081h-4.52646zM269.89162,234.22406h4.39713v-11.38081h-4.39713zM275.84068,234.22406h4.39713v-11.38081h-4.39713zM281.78975,234.22406h4.39713v-11.38081h-4.39713zM287.73881,234.22406h4.39713v-11.38081h-4.39713zM293.68787,234.22406h4.39713v-11.38081h-4.39713zM299.63693,234.22406h4.39713v-11.38081h-4.39713zM305.58599,234.22406h4.39713v-11.38081h-4.39713zM311.53505,234.22406h4.13848v-11.38081h-4.13848zM234.19726,247.28612h4.52646v-11.51013h-4.52646zM240.14632,247.28612h4.52646v-11.51013h-4.52646zM246.09539,247.28612h4.52646v-11.51013h-4.52646zM252.04444,247.28612h4.52646v-11.51013h-4.52646zM257.9935,247.28612h4.52646v-11.51013h-4.52646zM263.94256,247.28612h4.52646v-11.51013h-4.52646zM269.89162,247.28612h4.39713v-11.51013h-4.39713zM275.84068,247.28612h4.39713v-11.51013h-4.39713zM281.78975,247.28612h4.39713v-11.51013h-4.39713zM287.73881,247.28612h4.39713v-11.51013h-4.39713zM293.68787,247.28612h4.39713v-11.51013h-4.39713zM299.63693,247.28612h4.39713v-11.51013h-4.39713zM305.58599,247.28612h4.39713v-11.51013h-4.39713zM311.53505,247.28612h4.13848v-11.51013h-4.13848zM238.72371,248.70872h-4.52646v8.66494h4.52646zM244.67278,248.70872h-4.52646v8.66494h4.52646zM250.62184,248.70872h-4.52646v8.66494h4.52646zM256.5709,248.70872h-4.52646v8.66494h4.52646zM262.51997,248.70872h-4.52646v8.66494h4.52646zM268.46902,248.70872h-4.52646v8.66494h4.52646zM274.28875,248.70872h-4.39713v8.66494h4.39713zM280.23782,248.70872h-4.39713v8.66494h4.39713zM286.18687,248.70872h-4.39713v8.66494h4.39713zM292.13594,248.70872h-4.39713v8.66494h4.39713zM298.085,248.70872h-4.39713v8.66494h4.39713zM304.03406,248.70872h-4.39713v8.66494h4.39713zM309.98312,248.70872h-4.39713v8.66494h4.39713zM315.67353,248.70872h-4.13848v8.66494h4.13848zM221.46129,181.46123c6.98526,-6.98524 15.00729,-12.39364 24.06608,-16.22518c9.38026,-3.96753 19.20444,-5.9513 29.47257,-5.9513c10.26823,0 20.09256,1.98376 29.47301,5.9513c9.05866,3.83154 17.08068,9.23993 24.06606,16.22518c6.98512,6.9853 12.3934,15.00733 16.22486,24.0661c3.96761,9.38031 5.95141,19.20454 5.95141,29.47269c0,10.26823 -1.9838,20.09243 -5.95141,29.47261c-3.83146,9.05893 -9.23975,17.08095 -16.22486,24.06606c-6.98538,6.98538 -15.0074,12.3938 -24.06606,16.22526c-9.38044,3.96761 -19.20478,5.95141 -29.47301,5.95141c-10.26815,0 -20.09234,-1.9838 -29.47257,-5.95141c-9.05882,-3.83146 -17.08085,-9.23988 -24.06608,-16.22526c-6.98526,-6.98512 -12.39366,-15.00713 -16.2252,-24.06606c-3.96753,-9.38018 -5.9513,-19.20438 -5.9513,-29.47261c0,-10.26818 1.98376,-20.0924 5.9513,-29.47269c3.83154,-9.05879 9.23994,-17.08083 16.2252,-24.0661zM225.57967,284.42048c6.44977,6.4496 13.85529,11.44276 22.21656,14.97945c8.65505,3.6608 17.72295,5.49121 27.20371,5.49121c9.48102,0 18.54904,-1.8304 27.20406,-5.49121c8.36132,-3.53669 15.76679,-8.52984 22.2164,-14.97945c6.44988,-6.44988 11.44302,-13.85548 14.97945,-22.2168c3.6608,-8.65502 5.49121,-17.72291 5.49121,-27.20366c0,-9.48083 -1.8304,-18.54877 -5.49121,-27.20383c-3.53643,-8.36135 -8.52957,-15.76688 -14.97945,-22.21658c-6.4496,-6.44976 -13.85508,-11.44289 -22.2164,-14.97943c-8.65502,-3.66077 -17.72304,-5.49117 -27.20406,-5.49117c-9.48075,0 -18.54865,1.83039 -27.20371,5.49117c-8.3613,3.53653 -15.76682,8.52967 -22.21656,14.97943c-6.44976,6.44976 -11.44291,13.85529 -14.97945,22.21658c-3.66077,8.65508 -5.49117,17.72302 -5.49117,27.20383c0,9.48075 1.83039,18.54864 5.49117,27.20366c3.53654,8.36132 8.52969,15.76692 14.97945,22.2168z" data-paper-data="{&quot;isPathIcon&quot;:true}" style="fill: rgb(255, 255, 255);"></path></g><g data-paper-data="{&quot;isPrimaryText&quot;:true}" fill="#48a23f" fill-rule="nonzero" style="fill: rgb(255, 255, 255);"><path d="M162.22374,239.59091l3.70787,-0.4355l17.07851,10.43154l-1.44095,-12.26823l3.70787,-0.4355l2.0071,17.08847l-3.70787,0.4355l-17.14099,-10.96354l1.46556,12.4778l-3.70787,0.4355z" data-paper-data="{&quot;glyphName&quot;:&quot;Z&quot;,&quot;glyphIndex&quot;:0,&quot;firstGlyphOfWord&quot;:true,&quot;word&quot;:1}" style="fill: rgb(255, 255, 255);"></path><path d="M185.77723,231.22378l-0.57353,4.3777l-21.7352,-12.7846l0.60094,-4.58693l24.32241,-6.96332l-0.60094,4.58693l-6.62054,1.80106l-1.00157,7.64488l-3.50985,-1.94957l0.60727,-4.63521l-9.11716,2.48895z" data-paper-data="{&quot;glyphName&quot;:&quot;A&quot;,&quot;glyphIndex&quot;:1,&quot;word&quot;:1}" style="fill: rgb(255, 255, 255);"></path><path d="M180.66888,205.53877l-12.95847,-5.53072l1.68853,-3.95621l12.95847,5.53072c3.40384,1.45277 5.84913,0.43742 7.33589,-3.04603c1.48675,-3.48346 0.52821,-5.95157 -2.87563,-7.40434l-12.95847,-5.53072l1.68853,-3.95621l12.95847,5.53072c5.69297,2.42978 7.23323,6.70514 4.6208,12.82607c-2.61244,6.12094 -6.76514,7.96651 -12.45811,5.53674z" data-paper-data="{&quot;glyphName&quot;:&quot;U&quot;,&quot;glyphIndex&quot;:2,&quot;word&quot;:1}" style="fill: rgb(255, 255, 255);"></path><path d="M199.08353,187.08992l-18.0691,-14.57032l2.7001,-3.34847l20.85916,1.077l-13.16643,-10.61698l2.5982,-3.22211l18.0691,14.57032l-2.7001,3.34847l-21.13714,-1.30116l13.44442,10.84114z" data-paper-data="{&quot;glyphName&quot;:&quot;N&quot;,&quot;glyphIndex&quot;:3,&quot;word&quot;:1}" style="fill: rgb(255, 255, 255);"></path><path d="M205.34402,146.64065l13.29222,19.02902l-3.52636,2.46324l-13.29222,-19.02902zM218.73087,137.28962l-1.91733,14.54588l16.0612,3.88824l-4.88367,3.41136l-13.56801,-3.7488l-1.59878,-2.2888l1.59512,-12.79621z" data-paper-data="{&quot;glyphName&quot;:&quot;K&quot;,&quot;glyphIndex&quot;:4,&quot;word&quot;:1}" style="fill: rgb(255, 255, 255);"></path><path d="M231.30629,143.98169c1.99001,5.01979 5.21323,6.64634 9.66967,4.87966c4.34579,-1.72281 5.52368,-5.09411 3.53367,-10.1139c-1.9581,-4.93931 -5.11005,-6.54756 -9.45583,-4.82474c-4.45644,1.76668 -5.70561,5.11967 -3.74751,10.05898zM227.19256,145.71727c-2.89927,-7.31339 -0.73747,-12.40178 6.48538,-15.26516c7.1122,-2.81951 12.11794,-0.57257 15.0172,6.74083c2.88332,7.27316 0.76887,12.31949 -6.34333,15.139c-6.90095,2.73576 -11.95403,0.53087 -15.15926,-6.61467zM235.56896,123.24189l1.13658,2.86701l-3.24425,1.28613l-1.13658,-2.86701zM230.43852,125.27576l1.13658,2.86701l-3.24425,1.28613l-1.13658,-2.86701z" data-paper-data="{&quot;glyphName&quot;:&quot;Ö&quot;,&quot;glyphIndex&quot;:5,&quot;word&quot;:1}" style="fill: rgb(255, 255, 255);"></path><path d="M256.21954,147.22257l-2.20573,-23.10674l4.28202,-0.40875l13.80697,15.67265l-1.60725,-16.83722l4.12043,-0.39333l2.20573,23.10674l-4.28202,0.40875l-13.8409,-16.02814l1.64119,17.19271z" data-paper-data="{&quot;glyphName&quot;:&quot;N&quot;,&quot;glyphIndex&quot;:6,&quot;word&quot;:1}" style="fill: rgb(255, 255, 255);"></path><path d="M288.87663,122.96943l-2.40703,23.08664l-4.27829,-0.44606l2.40703,-23.08664z" data-paper-data="{&quot;glyphName&quot;:&quot;I&quot;,&quot;glyphIndex&quot;:7,&quot;word&quot;:1}" style="fill: rgb(255, 255, 255);"></path><path d="M310.04599,151.20762c-2.02888,0.25444 -4.39169,-0.01949 -7.08843,-0.82178c-7.85165,-2.33592 -10.62803,-7.36747 -8.32914,-15.09465c2.17546,-7.3123 7.25643,-9.78043 15.24291,-7.4044c2.43743,0.72515 4.50756,1.73618 6.21039,3.03309l-1.11087,3.73394c-1.67197,-1.40063 -3.62295,-2.43266 -5.85294,-3.0961c-5.34161,-1.58916 -8.74528,0.07962 -10.21101,5.00634c-1.58916,5.34161 0.13666,8.76225 5.17748,10.26193c0.74679,0.22217 1.63433,0.35074 2.66261,0.3857l1.92551,-6.47216l4.12289,1.22659z" data-paper-data="{&quot;glyphName&quot;:&quot;G&quot;,&quot;glyphIndex&quot;:8,&quot;lastGlyphOfWord&quot;:true,&quot;word&quot;:1}" style="fill: rgb(255, 255, 255);"></path><path d="M321.26026,158.0808l14.10714,-18.433l3.4159,2.61426l-5.82043,7.60522l9.0876,6.95492l5.82043,-7.60522l3.4159,2.61426l-14.10714,18.433l-3.4159,-2.61426l6.01773,-7.86303l-9.0876,-6.95492l-6.01773,7.86303z" data-paper-data="{&quot;glyphName&quot;:&quot;H&quot;,&quot;glyphIndex&quot;:9,&quot;firstGlyphOfWord&quot;:true,&quot;word&quot;:2}" style="fill: rgb(255, 255, 255);"></path><path d="M341.46779,175.35766l-2.64994,-3.53143l24.47961,-6.0509l2.7766,3.70021l-12.52564,21.98126l-2.7766,-3.70021l3.47542,-5.91581l-4.62766,-6.16701l3.87269,-1.05929l2.80582,3.73916l4.77992,-8.15291z" data-paper-data="{&quot;glyphName&quot;:&quot;A&quot;,&quot;glyphIndex&quot;:10,&quot;word&quot;:2}" style="fill: rgb(255, 255, 255);"></path><path d="M373.79865,180.45955l1.83457,4.24681l-7.67914,10.42538l12.70006,1.19747l1.7702,4.0978l-17.24391,-1.85149l-7.45054,3.21854l-1.70582,-3.94879l7.45054,-3.21854z" data-paper-data="{&quot;glyphName&quot;:&quot;Y&quot;,&quot;glyphIndex&quot;:11,&quot;word&quot;:2}" style="fill: rgb(255, 255, 255);"></path><path d="M366.54325,219.13277c0.76174,4.75487 3.9421,6.68382 9.54109,5.78685c4.76555,-0.76345 6.76746,-3.52261 6.00572,-8.27748l-0.75746,-4.72815l-15.54681,2.49063zM361.419,210.74785l22.91953,-3.67175l1.43789,8.97548c1.21536,7.58642 -1.78853,11.95821 -9.01165,13.11536c-8.05656,1.29068 -12.69252,-1.85719 -13.90788,-9.44361z" data-paper-data="{&quot;glyphName&quot;:&quot;D&quot;,&quot;glyphIndex&quot;:12,&quot;word&quot;:2}" style="fill: rgb(255, 255, 255);"></path><path d="M373.82982,235.28119l14.01372,1.45828l-0.44521,4.27838l-14.01372,-1.45828c-3.68102,-0.38305 -5.71754,1.30899 -6.10955,5.07612c-0.39201,3.76713 1.2525,5.84222 4.93352,6.22527l14.01372,1.45828l-0.44521,4.27838l-14.01372,-1.45828c-6.15656,-0.64066 -8.89044,-4.27067 -8.20162,-10.89006c0.68882,-6.61938 4.11151,-9.60875 10.26807,-8.96809z" data-paper-data="{&quot;glyphName&quot;:&quot;U&quot;,&quot;glyphIndex&quot;:13,&quot;lastGlyphOfWord&quot;:true,&quot;word&quot;:2}" style="fill: rgb(255, 255, 255);"></path></g><g data-paper-data="{&quot;isContainerElementsWrapper&quot;:true}" fill="#48a23f" fill-rule="evenodd" style="fill: rgb(255, 255, 255);"><path d="M188.1981,139.57237c-12.1031,11.00916 -21.74838,23.81378 -28.93582,38.41386c-6.96355,14.14535 -11.19208,29.08829 -12.6856,44.82884c-1.49345,15.74068 -0.15067,31.21211 4.02835,46.41428c4.31325,15.69166 11.37822,30.08189 21.19491,43.17067c0.00309,0.00399 0.00618,0.00797 0.00927,0.01196c12.17952,16.23562 27.34626,28.89203 45.50022,37.96923c18.15852,9.07919 37.38872,13.61879 57.69058,13.61879c20.30176,0 39.53146,-4.53993 57.69018,-13.61879c18.15673,-9.07787 33.3247,-21.73627 45.5049,-37.97521l0.00498,-0.00598c9.81709,-13.08978 16.88252,-27.47967 21.1953,-43.17067c4.17929,-15.20214 5.52124,-30.67357 4.02785,-46.41428c-1.49338,-15.74041 -5.72149,-30.68333 -12.6853,-44.82884c-7.18797,-14.60014 -16.83271,-27.40477 -28.9362,-38.41386c-12.10316,-11.00914 -25.76147,-19.40178 -40.97493,-25.17793c-14.73925,-5.59629 -30.01484,-8.39444 -45.82679,-8.39444c-15.81135,0 -31.08688,2.79815 -45.82659,8.39444c-15.21373,5.77615 -28.87217,14.16879 -40.97531,25.17793zM193.05994,227.22548c-1.96392,20.6987 3.14495,39.4063 15.32663,56.12277l-35.2916,26.46748c-9.22153,-12.54882 -15.88896,-26.30542 -20.00229,-41.26982c-4.09533,-14.89831 -5.41115,-30.0607 -3.94746,-45.48716c1.46376,-15.42653 5.60768,-30.07086 12.43176,-43.93301c7.04325,-14.30714 16.49564,-26.85539 28.35715,-37.64475c11.86148,-10.78936 25.24649,-19.01424 40.15503,-24.67462c14.44475,-5.48431 29.41503,-8.22647 44.91083,-8.22647c15.49643,0 30.46654,2.74219 44.91023,8.22647c14.90927,5.66032 28.29461,13.88519 40.15601,24.67462c11.8614,10.78937 21.31353,23.33762 28.35638,37.64475c6.82434,13.86194 10.96842,28.50628 12.43225,43.93301c1.46383,15.42626 0.14778,30.58865 -3.94815,45.48716c-4.11353,14.96473 -10.78046,28.72101 -20.00179,41.26982l-35.2913,-26.46748c12.18153,-16.71648 17.29032,-35.42407 15.32637,-56.12277c-2.00446,-21.12806 -10.85618,-38.83239 -26.55615,-53.11279c-15.69963,-14.28049 -34.16092,-21.42074 -55.38385,-21.42074c-21.22287,0 -39.68408,7.14025 -55.38365,21.42074c-15.69962,14.2805 -24.55175,31.98477 -26.55641,53.11279zM328.64838,176.02131c15.20682,13.83279 23.78125,30.98207 25.72328,51.44785c1.9417,20.46515 -3.25476,38.92085 -15.58938,55.36801c-7.52836,10.03759 -16.90411,17.86217 -28.12724,23.47374c-11.22254,5.61157 -23.10755,8.41735 -35.65503,8.41735c-12.54752,0 -24.43263,-2.80545 -35.65543,-8.41735c-11.22287,-5.61157 -20.59855,-13.43615 -28.12704,-23.47374c-12.33455,-16.44616 -17.53093,-34.90217 -15.58912,-55.36801c1.94181,-20.46571 10.51648,-37.615 25.72401,-51.44785c15.20742,-13.83291 33.08995,-20.74936 53.64758,-20.74936c20.55744,0 38.44023,6.91645 53.64838,20.74936zM208.8857,310.38261l1.21105,0.9564l-2.96206,5.16757l5.32548,-3.30159l1.14788,0.90659l-1.9419,5.68064l4.23787,-3.86746l1.17488,0.92751l-6.29423,5.48139l-1.13453,-0.89563l2.21936,-6.44776l-5.88826,3.55065l-1.12092,-0.88467zM340.98001,310.49419l3.96708,4.60668l-1.15167,0.99227l-3.96708,-4.60767zM331.92008,317.55165l4.90356,6.57528l1.17259,-0.87471l-3.64928,-4.8926l7.12023,2.30334l1.21941,-0.90858l-4.90456,-6.57528l-1.17259,0.87471l3.57356,4.79099l-7.04451,-2.20172zM345.41533,315.64482l0.91655,1.065l-1.15167,0.99127l-0.91755,-1.065zM219.95258,318.81091l-4.56075,6.81737l-1.26345,-0.84482l4.56075,-6.81836zM326.34604,326.88256l-2.57631,-4.26098l1.30111,-0.78604l2.57532,4.25998c0.67646,1.11979 1.58803,1.33299 2.73372,0.64059c1.1447,-0.6924 1.37882,-1.59899 0.70236,-2.71778l-2.57532,-4.26098l1.30011,-0.78604l2.57631,4.26098c1.13174,1.87196 0.6914,3.41615 -1.32103,4.63258c-2.01243,1.21643 -3.58452,0.88965 -4.71627,-0.98231zM222.19505,320.24652l-4.07637,7.10528l1.34335,0.7701l3.41117,-5.94564l1.80611,1.0361c0.59038,0.33873 0.73524,0.7701 0.43457,1.29413c-0.43769,0.76313 -1.3486,0.89098 -2.73272,0.38356l-0.3454,0.60174l0.38585,4.34167l1.66175,0.95342l-0.48966,-4.36758c1.45453,0.08501 2.42827,-0.3022 2.92122,-1.16163c0.72886,-1.27022 0.36682,-2.32227 -1.08592,-3.15514zM317.88784,334.64139l1.40671,-0.67347l-0.42939,-7.1531l2.49362,2.22065l-1.4894,0.71332l0.09863,1.41568l2.45776,-1.17658l1.8092,1.61393l1.47446,-0.70634l-6.75062,-5.86196l-1.47446,0.70634zM229.66566,333.55348l3.21023,-7.54762l3.5366,1.50335c1.4357,0.6107 1.90444,1.50235 1.40601,2.67395c-0.36513,0.85877 -1.09429,1.27421 -2.18747,1.24532c0.92004,0.6117 1.17658,1.39575 0.76951,2.35315c-0.63312,1.4884 -1.73617,1.89786 -3.30916,1.22938zM313.07195,327.77421l0.46326,1.23535l-2.13398,6.74165l4.08763,-1.53224l0.46326,1.23535l-5.6926,2.13497l-0.46425,-1.23535l2.31131,-6.8094l-4.15737,1.55914l-0.46326,-1.23535zM233.54966,333.77166c0.61937,0.26401 1.0637,0.0787 1.33309,-0.55491c0.33375,-0.78405 0.03786,-1.37383 -0.88756,-1.76735l-0.42231,-0.17933l0.38386,-0.90261c1.24362,0.29987 2.03076,0.06177 2.36152,-0.71631c0.17962,-0.42241 0.00897,-0.7442 -0.51188,-0.96537l-2.048,-0.87172l-2.17761,5.12075zM237.47291,336.78035l1.48452,0.48019l4.61305,-5.48338l0.27995,3.32848l-1.57179,-0.50809l-0.90271,1.09389l2.59245,0.83885l0.20104,2.41592l1.55545,0.50311l-0.85927,-8.89854l-1.55545,-0.50311zM294.44778,333.36917l1.87814,7.98398l1.42365,-0.33474l-1.39675,-5.94066l5.6129,4.94939l1.47944,-0.34869l-1.87794,-7.98398l-1.42365,0.33474l1.36786,5.81812l-5.584,-4.82685zM248.94895,336.97761l1.06709,-4.86371l1.48472,0.32578l-1.06699,4.86371c-0.28035,1.2772 0.23322,2.05926 1.54051,2.34618c1.30728,0.28692 2.1011,-0.20822 2.38135,-1.48541l1.06709,-4.86371l1.48472,0.32578l-1.06699,4.86371c-0.21745,0.99094 -0.63156,1.69762 -1.24233,2.12003c-0.70608,0.48883 -1.67494,0.59842 -2.90657,0.32876c-2.29716,-0.5041 -3.21133,-1.82514 -2.74259,-3.96111zM291.8356,333.84538l1.31107,8.09656l-1.50056,0.24309l-1.31107,-8.09656zM259.41739,334.0526l-0.97454,8.14438l1.45234,0.17335l0.72507,-6.06021l3.57496,6.57528l1.50923,0.18032l0.97464,-8.14438l-1.45234,-0.17434l-0.71013,5.93469l-3.59,-6.44875zM288.02692,335.73428l-0.1318,-1.30111l-5.58699,0.56587l0.82649,8.16032l5.66699,-0.57384l-0.133,-1.31207l-4.18307,0.42341l-0.21678,-2.13995l3.9092,-0.39651l-0.13698,-1.35192l-3.89207,0.39452l-0.20812,-2.05527zM272.99096,343.44429l-0.12304,-8.20116l3.21182,-0.04882c2.71479,-0.04085 4.09152,1.23137 4.13027,3.81665c0.04324,2.88316 -1.29244,4.34466 -4.00723,4.38551zM276.18295,342.07743c1.7015,-0.0259 2.53726,-1.04009 2.50717,-3.04356c-0.0255,-1.70559 -0.88906,-2.54543 -2.59056,-2.52052l-1.69194,0.0259l0.08339,5.56308z" data-paper-data="{&quot;isBaseLogoContainer&quot;:true}" style="fill: rgb(255, 255, 255);"></path></g></g></g></svg>
